<svg id="Layer_1" data-name="Layer 1" xmlns="http://www.w3.org/2000/svg" viewBox="0 0 77 68"><defs><style>.cls-1{fill:#FFFFFF;}</style></defs><title>Artboard 1</title><path class="cls-1" d="M64.05,25.08c-5.42,3.76-10.88,7.51-16.27,11.3-2.26,1.57-6.09,4.77-8.91,4.77H38.8c-2.81,0-6.64-3.2-8.9-4.77-5.39-3.79-10.85-7.54-16.24-11.3-2.47-1.67-6-5.6-6-8.77,0-3.4,1.84-6.32,5.56-6.32H64.43A5.6,5.6,0,0,1,70,15.55C70,19.44,67.11,23,64.05,25.08Zm6,28.31A5.58,5.58,0,0,1,64.43,59H13.24a5.57,5.57,0,0,1-5.56-5.56V25.77a19.17,19.17,0,0,0,3.51,3c5.77,3.93,11.62,7.86,17.28,12C31.4,43,35,45.6,38.8,45.6h.07c3.79,0,7.41-2.64,10.33-4.8,5.67-4.1,11.51-8.07,17.32-12a20.78,20.78,0,0,0,3.48-3Z"/></svg>